<svg width="666" height="666" viewBox="0 0 666 666" fill="none" xmlns="http://www.w3.org/2000/svg">
<rect opacity="0.3" x="116.5" y="114.5" width="435" height="435" rx="217.5" stroke="#01A63E"/>
<rect opacity="0.15" x="0.5" y="0.5" width="665" height="665" rx="332.5" stroke="#01A63E"/>
<rect opacity="0.7" x="232.5" y="230.5" width="203" height="203" rx="101.5" stroke="#01A63E"/>
<path d="M333 302L341.482 309.696L352.926 309.253L354.477 320.6L363.529 327.617L357.423 337.306L359.847 348.5L348.941 351.998L343.603 362.13L333 357.8L322.397 362.13L317.059 351.998L306.153 348.5L308.577 337.306L302.471 327.617L311.523 320.6L313.074 309.253L324.518 309.696L333 302Z" fill="#01A63E"/>
<path fill-rule="evenodd" clip-rule="evenodd" d="M323 333C323 327.429 327.429 323 333 323C338.571 323 343 327.429 343 333C343 338.571 338.571 343 333 343C327.429 343 323 338.571 323 333ZM337.489 328.15C337.987 328.449 338.149 329.096 337.85 329.594L333.113 337.489C332.946 337.767 332.661 337.953 332.339 337.992C332.017 338.032 331.695 337.921 331.466 337.692L328.308 334.534C327.897 334.123 327.897 333.456 328.308 333.045C328.719 332.634 329.386 332.634 329.797 333.045L332.001 335.25L336.045 328.511C336.344 328.013 336.99 327.851 337.489 328.15Z" fill="#FAF3DD"/>
</svg>
