<svg width="666" height="596" viewBox="0 0 666 596" fill="none" xmlns="http://www.w3.org/2000/svg">
<rect opacity="0.3" x="116.5" y="44.5" width="435" height="435" rx="217.5" stroke="#D5CC65"/>
<rect opacity="0.15" x="0.5" y="-69.5" width="665" height="665" rx="332.5" stroke="#D5CC65"/>
<rect opacity="0.7" x="232.5" y="160.5" width="203" height="203" rx="101.5" stroke="#D5CC65"/>
<path d="M333 232L341.482 239.696L352.926 239.253L354.477 250.6L363.529 257.617L357.423 267.306L359.847 278.5L348.941 281.998L343.603 292.13L333 287.8L322.397 292.13L317.059 281.998L306.153 278.5L308.577 267.306L302.471 257.617L311.523 250.6L313.074 239.253L324.518 239.696L333 232Z" fill="#D5CC65"/>
<path fill-rule="evenodd" clip-rule="evenodd" d="M340.541 255.159C341.005 255.458 341.14 256.076 340.841 256.541L331.841 270.541C331.683 270.788 331.424 270.952 331.133 270.991C330.842 271.03 330.549 270.94 330.331 270.743L325.331 266.243C324.921 265.874 324.887 265.242 325.257 264.831C325.626 264.421 326.258 264.387 326.669 264.757L330.795 268.47L339.159 255.459C339.457 254.995 340.076 254.86 340.541 255.159Z" fill="#222222"/>
</svg>
