<svg width="12" height="12" viewBox="0 0 12 12" fill="none" xmlns="http://www.w3.org/2000/svg">
<path d="M8.68779 4.2588C8.85354 3.98254 8.76396 3.62422 8.4877 3.45847C8.21145 3.29272 7.85313 3.3823 7.68737 3.65855L5.44677 7.3929L4.22506 6.1712C3.99726 5.94339 3.62791 5.94339 3.4001 6.1712C3.1723 6.399 3.1723 6.76835 3.4001 6.99615L5.1501 8.74615C5.27712 8.87317 5.45557 8.93459 5.63385 8.91264C5.81213 8.89069 5.97037 8.78783 6.06279 8.6338L8.68779 4.2588Z" fill="#D2D2D2"/>
<path fill-rule="evenodd" clip-rule="evenodd" d="M11.8334 6.00033C11.8334 9.22199 9.22174 11.8337 6.00008 11.8337C2.77842 11.8337 0.166748 9.22199 0.166748 6.00033C0.166748 2.77866 2.77842 0.166992 6.00008 0.166992C9.22174 0.166992 11.8334 2.77866 11.8334 6.00033ZM10.6667 6.00033C10.6667 8.57765 8.57741 10.667 6.00008 10.667C3.42275 10.667 1.33341 8.57765 1.33341 6.00033C1.33341 3.423 3.42275 1.33366 6.00008 1.33366C8.57741 1.33366 10.6667 3.423 10.6667 6.00033Z" fill="#D2D2D2"/>
</svg>
