<svg width="21" height="18" viewBox="0 0 21 18" fill="none" xmlns="http://www.w3.org/2000/svg">
<path d="M15.5591 16.5189C15.5591 14.8841 13.3504 13.5589 10.6259 13.5589C7.90133 13.5589 5.69266 14.8841 5.69266 16.5189M19.5056 13.5593C19.5056 12.3455 18.288 11.3024 16.5457 10.8457M1.74609 13.5593C1.74609 12.3455 2.9637 11.3024 4.70602 10.8457M16.5457 6.8854C17.1513 6.34341 17.5324 5.55579 17.5324 4.67916C17.5324 3.04444 16.2072 1.71924 14.5724 1.71924C13.8143 1.71924 13.1228 2.00423 12.5991 2.47293M4.70602 6.8854C4.10047 6.34341 3.71938 5.55579 3.71938 4.67916C3.71938 3.04444 5.04458 1.71924 6.6793 1.71924C7.43739 1.71924 8.12892 2.00423 8.65258 2.47293M10.6259 10.599C8.99114 10.599 7.66594 9.27381 7.66594 7.63909C7.66594 6.00436 8.99114 4.67916 10.6259 4.67916C12.2606 4.67916 13.5858 6.00436 13.5858 7.63909C13.5858 9.27381 12.2606 10.599 10.6259 10.599Z" stroke="#222222" stroke-width="1.97328" stroke-linecap="round" stroke-linejoin="round"/>
</svg>
