<svg width="16" height="16" viewBox="0 0 16 16" fill="none" xmlns="http://www.w3.org/2000/svg">
<path fill-rule="evenodd" clip-rule="evenodd" d="M9.91898 2.47153C10.7 1.69048 11.9664 1.69048 12.7474 2.47153L13.5285 3.25258C14.3095 4.03363 14.3095 5.29996 13.5285 6.081L6.09006 13.5194C5.81086 13.7986 5.45526 13.9889 5.06808 14.0664L3.11119 14.4577C2.17823 14.6443 1.35567 13.8218 1.54226 12.8888L1.93364 10.9319C2.01107 10.5447 2.20138 10.1891 2.48058 9.90993L9.91898 2.47153ZM11.8046 3.41434C11.5443 3.15399 11.1221 3.15399 10.8618 3.41434L3.42339 10.8527C3.33033 10.9458 3.26689 11.0643 3.24108 11.1934L2.8497 13.1503L4.80659 12.7589C4.93565 12.7331 5.05418 12.6697 5.14725 12.5766L12.5856 5.13819C12.846 4.87784 12.846 4.45574 12.5856 4.19539L11.8046 3.41434Z" fill="#222222"/>
<path fill-rule="evenodd" clip-rule="evenodd" d="M9.3332 14.0001C9.3332 13.6319 9.63167 13.3335 9.99986 13.3335H13.3332C13.7014 13.3335 13.9999 13.6319 13.9999 14.0001C13.9999 14.3683 13.7014 14.6668 13.3332 14.6668H9.99986C9.63167 14.6668 9.3332 14.3683 9.3332 14.0001Z" fill="#222222"/>
</svg>
