<svg width="16" height="17" viewBox="0 0 16 17" fill="none" xmlns="http://www.w3.org/2000/svg">
<path d="M0.5 8.5C0.5 4.35941 3.85823 1 8 1C12.1418 1 15.5 4.35941 15.5 8.5C15.5 12.6431 12.1419 16 8 16C3.85812 16 0.5 12.6431 0.5 8.5ZM9.85484 5.40323C9.85484 4.37883 9.0244 3.54839 8 3.54839C6.9756 3.54839 6.14516 4.37883 6.14516 5.40323C6.14516 6.06074 6.48728 6.63834 7.00322 6.96774H6.58065C6.09073 6.96774 5.69355 7.36492 5.69355 7.85484V8.62903C5.69355 9.0807 6.03113 9.45355 6.46774 9.50901V10.5878C6.03113 10.6432 5.69355 11.0161 5.69355 11.4677V12.2419C5.69355 12.7318 6.09073 13.129 6.58065 13.129H9.41935C9.90927 13.129 10.3065 12.7319 10.3065 12.2419V11.4677C10.3065 11.0161 9.96887 10.6432 9.53226 10.5878V7.85484C9.53226 7.4621 9.27702 7.12896 8.92338 7.01225C9.48002 6.69212 9.85484 6.09145 9.85484 5.40323Z" fill="black" stroke="black"/>
</svg>
