<svg width="16" height="16" viewBox="0 0 16 16" fill="none" xmlns="http://www.w3.org/2000/svg">
<path fill-rule="evenodd" clip-rule="evenodd" d="M7.99998 6.00033C6.89541 6.00033 5.99998 6.89576 5.99998 8.00033C5.99998 9.1049 6.89541 10.0003 7.99998 10.0003C9.10455 10.0003 9.99998 9.1049 9.99998 8.00033C9.99998 6.89576 9.10455 6.00033 7.99998 6.00033ZM7.33331 8.00033C7.33331 7.63214 7.63179 7.33366 7.99998 7.33366C8.36817 7.33366 8.66665 7.63214 8.66665 8.00033C8.66665 8.36852 8.36817 8.66699 7.99998 8.66699C7.63179 8.66699 7.33331 8.36852 7.33331 8.00033Z" fill="white"/>
<path fill-rule="evenodd" clip-rule="evenodd" d="M8.00001 3.66699C5.13596 3.66699 2.65661 5.30897 1.44976 7.69985C1.3544 7.88877 1.35439 8.11174 1.44975 8.30066C2.65658 10.6916 5.13597 12.3337 8.00007 12.3337C10.8641 12.3337 13.3435 10.6917 14.5503 8.3008C14.6457 8.11188 14.6457 7.88891 14.5503 7.69999C13.3435 5.30903 10.8641 3.66699 8.00001 3.66699ZM8.00007 11.0003C5.78019 11.0003 3.84079 9.79489 2.80259 8.00027C3.8408 6.20571 5.78017 5.00033 8.00001 5.00033C10.2199 5.00033 12.1593 6.20576 13.1975 8.00038C12.1593 9.79494 10.2199 11.0003 8.00007 11.0003Z" fill="white"/>
</svg>
