<svg width="24" height="24" viewBox="0 0 24 24" fill="none" xmlns="http://www.w3.org/2000/svg">
<path fill-rule="evenodd" clip-rule="evenodd" d="M12.4142 5.0001L11.6446 4.23049C11.6248 4.2107 11.6052 4.19105 11.5857 4.17156C11.2985 3.88377 11.0448 3.62958 10.7393 3.44238C10.4718 3.27844 10.1796 3.15672 9.87249 3.08299C9.52404 2.99934 9.16473 2.99967 8.75786 3.00005C8.7303 3.00008 8.70253 3.0001 8.67452 3.0001H5C3.34315 3.0001 2 4.34325 2 6.0001L2 16.8387C1.99998 17.3658 1.99997 17.8205 2.03057 18.195C2.06288 18.5903 2.13422 18.9834 2.32698 19.3617C2.61416 19.9253 3.07245 20.3853 3.63781 20.6733C4.016 20.866 4.40906 20.9373 4.80397 20.9696C5.17815 21.0001 5.6323 21.0001 6.15839 21.0001H17.8416C18.3677 21.0001 18.8217 21.0001 19.1957 20.9696C19.5905 20.9373 19.9833 20.866 20.3614 20.6733C20.9255 20.3859 21.3854 19.9268 21.6732 19.3619C21.866 18.9835 21.9373 18.5903 21.9696 18.1949C22.0003 17.8203 22.0002 17.3656 22.0002 16.8384L22.0002 9.16131C22.0002 8.63417 22.0002 8.17942 21.9696 7.80485C21.9373 7.40951 21.866 7.01629 21.6732 6.63791C21.3852 6.07255 20.9252 5.61425 20.3616 5.32708C19.9833 5.13432 19.5902 5.06298 19.1949 5.03067C18.8204 5.00007 18.3657 5.00008 17.8386 5.0001L12.4142 5.0001ZM4 7.0001V16.8001C4 17.3767 4.00078 17.7488 4.02393 18.032C4.04612 18.3035 4.08377 18.4042 4.109 18.4537C4.20531 18.6427 4.3585 18.7959 4.54579 18.8913C4.59501 18.9164 4.69554 18.954 4.96686 18.9762C5.2498 18.9993 5.62146 19.0001 6.19691 19.0001H17.8031C18.3786 19.0001 18.75 18.9993 19.0327 18.9762C19.3036 18.9541 19.4041 18.9165 19.4534 18.8913C19.642 18.7952 19.7956 18.6416 19.8912 18.4539C19.9164 18.4045 19.9541 18.3037 19.9763 18.0321C19.9994 17.7487 20.0002 17.3765 20.0002 16.7999L20.0002 9.19988C20.0002 8.62333 19.9994 8.25105 19.9763 7.96772C19.9541 7.69605 19.9164 7.59533 19.8912 7.54589C19.7958 7.35861 19.6426 7.20542 19.4536 7.1091C19.4041 7.08387 19.3034 7.04622 19.0319 7.02403C18.7487 7.00088 18.3766 7.0001 17.8 7.0001H4ZM13 11.8686L14.4453 12.8322C14.9048 13.1385 15.5257 13.0143 15.8321 12.5548C16.1384 12.0953 16.0142 11.4744 15.5547 11.1681L12.5547 9.16805C12.2188 8.94412 11.7812 8.94412 11.4453 9.16805L8.4453 11.168C7.98577 11.4744 7.8616 12.0953 8.16795 12.5548C8.4743 13.0143 9.09517 13.1385 9.5547 12.8322L11 11.8686V16.0001C11 16.5524 11.4477 17.0001 12 17.0001C12.5523 17.0001 13 16.5524 13 16.0001V11.8686Z" fill="#222222"/>
</svg>
