<svg width="90" height="20" viewBox="0 0 90 20" fill="none" xmlns="http://www.w3.org/2000/svg">
<path d="M4.84136 12.5645V14.8914H3.9827C1.24929 14.8914 0 13.96 0 10.2377V3.72363H2.88916V10.2377C2.88916 11.4942 3.2789 11.7894 3.9827 11.7894H4.06016L4.84136 12.5645Z" fill="#D5CC65"/>
<path d="M8.12113 12.5641V14.891H4.68648L3.90527 14.1151V11.7891H7.34076L8.12113 12.5641Z" fill="#D5CC65"/>
<path d="M11.4017 12.5641V14.891H7.96616L7.18579 14.1151V11.7891H10.6205L11.4017 12.5641Z" fill="#D5CC65"/>
<path d="M14.6814 12.5641V14.891H11.2468L10.4656 14.1151V11.7891H13.9011L14.6814 12.5641Z" fill="#D5CC65"/>
<path d="M17.9621 12.5641V14.891H14.5257L13.7454 14.1151V11.7891H17.1809L17.9621 12.5641Z" fill="#D5CC65"/>
<path d="M21.9447 5.83251C21.9447 6.68537 21.4767 7.21311 20.4923 7.21311C20.07 7.21311 19.7269 7.02695 19.4928 6.71681C19.3055 7.24455 18.8366 7.60105 18.1345 7.60105C17.2442 7.60105 16.7911 7.05839 16.6195 6.15846L16.4788 5.41398C16.8686 5.24275 17.275 5.13439 17.6972 5.05746C17.8846 6.08066 17.9005 6.36025 18.3069 6.36025C18.6192 6.36025 18.7125 6.12702 18.7125 5.8797C18.7125 5.78621 18.6967 5.69271 18.6817 5.6158L18.5559 5.08807L19.7119 4.88623L19.8526 5.4909C19.9301 5.81682 20.0875 5.9723 20.3057 5.9723C20.6022 5.9723 20.6955 5.81682 20.6955 5.56867C20.6955 5.3205 20.5864 4.96399 20.4923 4.62319C20.8979 4.53055 21.2885 4.4834 21.6632 4.4834C21.8507 4.99542 21.944 5.44541 21.944 5.83251" fill="#D5CC65"/>
<path d="M17.8063 14.8912L17.0251 14.1153V11.7892H17.1034C17.7905 11.7892 18.1961 11.4327 18.1961 10.0828V8.68652H21.0852V10.2375C21.0852 11.4319 21.4609 11.7892 22.1788 11.7892H22.2571L23.0383 12.5643V14.8912H22.96C21.789 14.8912 21.1477 14.2245 20.867 12.6421C20.399 14.2551 19.2747 14.8912 17.9621 14.8912H17.8055H17.8063ZM23.194 17.6829C22.7102 18.257 21.9764 18.9543 21.3984 19.3894C21.0536 19.1255 20.6172 18.7384 20.2274 18.3662C19.8368 18.7384 19.4154 19.1255 19.0556 19.3894C18.4943 18.9551 17.7131 18.2578 17.26 17.6829C17.7131 17.1097 18.4943 16.4115 19.0556 15.9765C19.4154 16.2403 19.8368 16.6274 20.2274 16.9997C20.6172 16.6274 21.0545 16.2403 21.3984 15.9765C21.9756 16.4107 22.7102 17.1088 23.194 17.6829Z" fill="#D5CC65"/>
<path d="M29.0671 0C29.1921 0.402836 29.2545 0.806499 29.2854 1.21016L24.6639 2.01666C24.5381 1.613 24.4756 1.21016 24.4448 0.806499L29.0671 0Z" fill="#D5CC65"/>
<path d="M34.6732 9.77195C34.6732 10.547 34.4866 11.6645 34.2059 12.5636C33.3465 13.6175 32.5652 14.2701 30.4573 15.0452C29.3171 14.8756 28.0212 14.472 26.8811 13.8359C25.7884 14.4868 24.5066 14.8905 23.2723 14.8905H22.8825L22.1013 14.1146V11.7886H24.5532C24.1468 11.1517 23.8978 10.4387 23.8978 9.64702C23.8978 8.12751 24.913 6.97937 26.7395 6.97937C28.7225 6.97937 29.9093 8.06546 29.9093 9.61558C29.9093 10.4378 29.5653 11.26 28.9882 12.0202C29.9093 12.0665 31.0653 12.098 32.487 12.098C32.5802 11.7249 32.6427 11.3378 32.6427 10.9656C32.6427 8.22095 30.4257 6.20348 25.2245 6.20348C25.3503 5.13311 25.6468 3.56726 25.9274 3.10156C31.0187 3.10156 34.6724 5.69227 34.6724 9.77112M25.7708 10.7637C25.7708 11.1823 26.0515 11.4925 26.7395 11.6943C27.629 11.5239 27.8796 11.1666 27.8796 10.7637C27.8796 10.2831 27.4574 10.0813 26.8178 10.0813C26.0832 10.0813 25.7708 10.2831 25.7708 10.7637Z" fill="#D5CC65"/>
<path d="M43.2274 2.55566H45.8775V7.29955H50.5723V2.55566H53.2224V14.1725H50.5723V9.37991H45.8775V14.1725H43.2274V2.55566Z" fill="white"/>
<path d="M54.8923 11.8165C54.8923 9.83461 56.7238 9.08683 59.3414 9.08683H60.3067V8.74519C60.3067 7.73768 59.9952 7.18598 58.9167 7.18598C57.9839 7.18598 57.5591 7.65666 57.4609 8.38786H55.2197C55.3671 6.37366 56.9703 5.47949 59.0641 5.47949C61.1579 5.47949 62.647 6.32486 62.647 8.63107V14.1715H60.34V13.1483C59.8494 13.8299 59.0966 14.3501 57.7557 14.3501C56.2007 14.3501 54.8932 13.6024 54.8932 11.8157M60.3075 11.1986V10.484H59.3914C58.0172 10.484 57.2152 10.7767 57.2152 11.6867C57.2152 12.3037 57.5916 12.7099 58.4586 12.7099C59.5063 12.7099 60.3075 12.1416 60.3075 11.1986Z" fill="white"/>
<path d="M66.982 13.3113L63.579 5.6748H66.1308L68.2087 10.7768L70.1227 5.6748H72.3963L67.7666 17.0642H65.477L66.982 13.3113Z" fill="white"/>
<path d="M76.3724 13.3113L72.9694 5.6748H75.5212L77.5992 10.7768L79.5131 5.6748H81.7868L77.1569 17.0642H74.8674L76.3724 13.3113Z" fill="white"/>
<path d="M82.2456 11.8165C82.2456 9.83461 84.077 9.08683 86.6947 9.08683H87.66V8.74519C87.66 7.73768 87.3485 7.18598 86.2699 7.18598C85.3371 7.18598 84.9124 7.65666 84.8141 8.38786H82.5729C82.7203 6.37366 84.3236 5.47949 86.4173 5.47949C88.5111 5.47949 90.0002 6.32486 90.0002 8.63107V14.1715H87.6933V13.1483C87.2027 13.8299 86.4498 14.3501 85.1089 14.3501C83.554 14.3501 82.2464 13.6024 82.2464 11.8157M87.6608 11.1986V10.484H86.7446C85.3704 10.484 84.5684 10.7767 84.5684 11.6867C84.5684 12.3037 84.9448 12.7099 85.8118 12.7099C86.8596 12.7099 87.6608 12.1416 87.6608 11.1986Z" fill="white"/>
<path d="M72.5785 4.09377C72.4511 4.74478 72.1462 5.04755 71.6507 5.04755C71.0268 5.04755 70.6746 4.53966 70.6746 3.6339C70.6746 3.3791 70.7071 3.06146 70.787 2.7918L71.699 2.71239C71.6349 2.93492 71.6032 3.15657 71.6032 3.33113C71.6032 3.56935 71.6665 3.74469 71.8905 3.74469C72.1471 3.74469 72.2586 3.41137 72.2586 2.61563L73.154 2.5213C73.154 3.20376 73.2664 3.48995 73.4896 3.48995C73.7128 3.48995 73.8094 3.29886 73.8094 2.98206C73.8094 2.80755 73.7928 2.61646 73.7453 2.39393L74.6731 2.29883C74.7214 2.53705 74.7364 2.83893 74.7364 3.06146C74.7364 4.18975 74.3208 4.79274 73.5687 4.79274C73.0573 4.79274 72.7376 4.55452 72.5768 4.09377" fill="white"/>
</svg>
