<svg width="49" height="48" viewBox="0 0 49 48" fill="none" xmlns="http://www.w3.org/2000/svg">
<path d="M24.5 0L31.0668 5.9579L39.9269 5.61493L41.1277 14.4L48.1354 19.8324L43.4083 27.334L45.2846 36L36.8415 38.7081L32.7085 46.5526L24.5 43.2L16.2915 46.5526L12.1585 38.7081L3.71539 36L5.59169 27.334L0.864614 19.8324L7.87231 14.4L9.0731 5.61493L17.9332 5.9579L24.5 0Z" fill="#D5CC65"/>
<path d="M28.5008 30.3999C28.5008 29.0744 26.7099 27.9999 24.5008 27.9999C22.2916 27.9999 20.5008 29.0744 20.5008 30.3999M31.7008 28.0002C31.7008 27.016 30.7135 26.1702 29.3008 25.7999M17.3008 28.0002C17.3008 27.016 18.2881 26.1702 19.7008 25.7999M29.3008 22.5888C29.7918 22.1493 30.1008 21.5107 30.1008 20.7999C30.1008 19.4744 29.0263 18.3999 27.7008 18.3999C27.0861 18.3999 26.5254 18.631 26.1008 19.011M19.7008 22.5888C19.2098 22.1493 18.9008 21.5107 18.9008 20.7999C18.9008 19.4744 19.9753 18.3999 21.3008 18.3999C21.9155 18.3999 22.4762 18.631 22.9008 19.011M24.5008 25.5999C23.1753 25.5999 22.1008 24.5254 22.1008 23.1999C22.1008 21.8744 23.1753 20.7999 24.5008 20.7999C25.8263 20.7999 26.9008 21.8744 26.9008 23.1999C26.9008 24.5254 25.8263 25.5999 24.5008 25.5999Z" stroke="#222222" stroke-width="1.2" stroke-linecap="round" stroke-linejoin="round"/>
</svg>
