<svg width="49" height="48" viewBox="0 0 49 48" fill="none" xmlns="http://www.w3.org/2000/svg">
<path d="M24.5 0L31.0668 5.9579L39.9269 5.61493L41.1277 14.4L48.1354 19.8324L43.4083 27.334L45.2846 36L36.8415 38.7081L32.7085 46.5526L24.5 43.2L16.2915 46.5526L12.1585 38.7081L3.71539 36L5.59169 27.334L0.864614 19.8324L7.87231 14.4L9.0731 5.61493L17.9332 5.9579L24.5 0Z" fill="#D5CC65"/>
<path d="M21.3006 20C21.3006 19.5582 21.6588 19.2 22.1006 19.2L22.9006 19.2C23.3424 19.2 23.7006 19.5582 23.7006 20C23.7006 20.4418 23.3424 20.8 22.9006 20.8H22.1006C21.6588 20.8 21.3006 20.4418 21.3006 20Z" fill="#222222"/>
<path d="M22.1006 22.4C21.6588 22.4 21.3006 22.7582 21.3006 23.2C21.3006 23.6418 21.6588 24 22.1006 24H22.9006C23.3424 24 23.7006 23.6418 23.7006 23.2C23.7006 22.7582 23.3424 22.4 22.9006 22.4H22.1006Z" fill="#222222"/>
<path fill-rule="evenodd" clip-rule="evenodd" d="M20.5006 16C19.1751 16 18.1006 17.0745 18.1006 18.4V31.2C18.1006 31.6418 18.4588 32 18.9006 32H30.1006C30.5424 32 30.9006 31.6418 30.9006 31.2V24.8C30.9006 23.4745 29.8261 22.4 28.5006 22.4H26.9006V18.4C26.9006 17.0745 25.8261 16 24.5006 16H20.5006ZM29.3006 30.4V24.8C29.3006 24.3582 28.9424 24 28.5006 24H26.9006V30.4H29.3006ZM25.3006 30.4V18.4C25.3006 17.9582 24.9424 17.6 24.5006 17.6H20.5006C20.0588 17.6 19.7006 17.9582 19.7006 18.4V30.4H21.7006V28C21.7006 27.5582 22.0588 27.2 22.5006 27.2C22.9424 27.2 23.3006 27.5582 23.3006 28V30.4H25.3006Z" fill="#222222"/>
</svg>
