<svg width="24" height="24" viewBox="0 0 24 24" fill="none" xmlns="http://www.w3.org/2000/svg">
<path fill-rule="evenodd" clip-rule="evenodd" d="M12.0059 3.80184C14.6793 3.80184 14.9959 3.81356 16.0473 3.86047C17.0244 3.90346 17.5521 4.06762 17.9039 4.20442C18.369 4.38421 18.7051 4.60309 19.053 4.95095C19.4047 5.30272 19.6197 5.63494 19.7995 6.10006C19.9363 6.45183 20.1005 6.98339 20.1434 7.95662C20.1904 9.01192 20.2021 9.32851 20.2021 11.998C20.2021 14.6715 20.1904 14.9881 20.1434 16.0395C20.1005 17.0166 19.9363 17.5443 19.7995 17.896C19.6197 18.3612 19.4008 18.6973 19.053 19.0451C18.7012 19.3969 18.369 19.6119 17.9039 19.7917C17.5521 19.9285 17.0205 20.0926 16.0473 20.1356C14.992 20.1825 14.6754 20.1943 12.0059 20.1943C9.33242 20.1943 9.01583 20.1825 7.96443 20.1356C6.9873 20.0926 6.45965 19.9285 6.10788 19.7917C5.64276 19.6119 5.30663 19.393 4.95877 19.0451C4.607 18.6934 4.39203 18.3612 4.21223 17.896C4.07544 17.5443 3.91128 17.0127 3.86828 16.0395C3.82138 14.9842 3.80965 14.6676 3.80965 11.998C3.80965 9.32461 3.82138 9.00801 3.86828 7.95662C3.91128 6.97948 4.07544 6.45183 4.21223 6.10006C4.39203 5.63494 4.61091 5.29881 4.95877 4.95095C5.31053 4.59918 5.64276 4.38421 6.10788 4.20442C6.45965 4.06762 6.99121 3.90346 7.96443 3.86047C9.01583 3.81356 9.33242 3.80184 12.0059 3.80184ZM12.0059 2C9.28943 2 8.94939 2.01173 7.88235 2.05863C6.81923 2.10553 6.08833 2.27751 5.45515 2.52374C4.79461 2.78171 4.23569 3.12175 3.68067 3.68067C3.12175 4.23569 2.78171 4.79461 2.52374 5.45124C2.27751 6.08833 2.10553 6.81532 2.05863 7.87845C2.01173 8.94939 2 9.28943 2 12.0059C2 14.7223 2.01173 15.0623 2.05863 16.1294C2.10553 17.1925 2.27751 17.9234 2.52374 18.5566C2.78171 19.2171 3.12175 19.776 3.68067 20.3311C4.23569 20.8861 4.79461 21.23 5.45124 21.4841C6.08833 21.7303 6.81532 21.9023 7.87845 21.9492C8.94548 21.9961 9.28552 22.0078 12.002 22.0078C14.7184 22.0078 15.0584 21.9961 16.1255 21.9492C17.1886 21.9023 17.9195 21.7303 18.5527 21.4841C19.2093 21.23 19.7682 20.8861 20.3232 20.3311C20.8783 19.776 21.2222 19.2171 21.4763 18.5605C21.7225 17.9234 21.8945 17.1964 21.9414 16.1333C21.9883 15.0663 22 14.7262 22 12.0098C22 9.29334 21.9883 8.95329 21.9414 7.88626C21.8945 6.82314 21.7225 6.09224 21.4763 5.45906C21.23 4.79461 20.89 4.23569 20.3311 3.68067C19.776 3.12566 19.2171 2.78171 18.5605 2.52765C17.9234 2.28141 17.1964 2.10944 16.1333 2.06254C15.0623 2.01173 14.7223 2 12.0059 2ZM12.0059 6.86614C9.16827 6.86614 6.86614 9.16827 6.86614 12.0059C6.86614 14.8435 9.16827 17.1456 12.0059 17.1456C14.8435 17.1456 17.1456 14.8435 17.1456 12.0059C17.1456 9.16827 14.8435 6.86614 12.0059 6.86614ZM12.0059 15.3399C10.1649 15.3399 8.67188 13.8468 8.67188 12.0059C8.67188 10.1649 10.1649 8.67188 12.0059 8.67188C13.8468 8.67188 15.3399 10.1649 15.3399 12.0059C15.3399 13.8468 13.8468 15.3399 12.0059 15.3399ZM17.3484 7.86182C18.0087 7.86182 18.5478 7.32656 18.5478 6.66237C18.5478 6.00208 18.0087 5.46291 17.3484 5.46291C16.6881 5.46291 16.1489 5.99817 16.1489 6.66237C16.1489 7.32265 16.6842 7.86182 17.3484 7.86182Z" fill="white"/>
</svg>
