<svg width="400" height="26" viewBox="0 0 400 26" fill="none" xmlns="http://www.w3.org/2000/svg">
<path d="M6.45515 16.8259V19.9284H5.31027C1.66572 19.9284 0 18.6865 0 13.7235V5.03809H3.85221V13.7235C3.85221 15.3988 4.37187 15.7925 5.31027 15.7925H5.41355L6.45515 16.8259Z" fill="#D5CC65"/>
<path d="M10.8282 16.8264V19.9289H6.24864L5.20703 18.8944V15.793H9.78768L10.8282 16.8264Z" fill="#D5CC65"/>
<path d="M15.2023 16.8264V19.9289H10.6215L9.58105 18.8944V15.793H14.1607L15.2023 16.8264Z" fill="#D5CC65"/>
<path d="M19.5752 16.8264V19.9289H14.9957L13.9541 18.8944V15.793H18.5347L19.5752 16.8264Z" fill="#D5CC65"/>
<path d="M23.9495 16.8264V19.9289H19.3676L18.3271 18.8944V15.793H22.9079L23.9495 16.8264Z" fill="#D5CC65"/>
<path d="M29.2595 7.85057C29.2595 8.98772 28.6355 9.69137 27.3229 9.69137C26.7599 9.69137 26.3024 9.44316 25.9903 9.02964C25.7405 9.73329 25.1153 10.2086 24.1792 10.2086C22.9921 10.2086 22.388 9.48509 22.1592 8.28517L21.9716 7.29253C22.4913 7.06422 23.0332 6.91974 23.5962 6.81718C23.8461 8.18144 23.8672 8.55423 24.4091 8.55423C24.8255 8.55423 24.9498 8.24325 24.9498 7.91349C24.9498 7.78884 24.9288 7.66418 24.9088 7.56163L24.741 6.85798L26.2824 6.58887L26.47 7.39509C26.5733 7.82965 26.7832 8.03697 27.0742 8.03697C27.4695 8.03697 27.5939 7.82965 27.5939 7.49878C27.5939 7.1679 27.4484 6.69254 27.3229 6.23815C27.8637 6.11463 28.3846 6.05176 28.8842 6.05176C29.1341 6.73446 29.2585 7.33444 29.2585 7.85057" fill="#D5CC65"/>
<path d="M23.7418 19.9291L22.7002 18.8946V15.7932H22.8046C23.7207 15.7932 24.2615 15.3179 24.2615 13.518V11.6562H28.1137V13.7242C28.1137 15.3168 28.6145 15.7932 29.5717 15.7932H29.6761L30.7177 16.8266V19.9291H30.6133C29.0521 19.9291 28.1969 19.0402 27.8227 16.9304C27.1987 19.081 25.6996 19.9291 23.9495 19.9291H23.7407H23.7418ZM30.9254 23.6514C30.2802 24.4169 29.3019 25.3466 28.5312 25.9267C28.0715 25.5749 27.4896 25.0587 26.9699 24.5624C26.4491 25.0587 25.8872 25.5749 25.4075 25.9267C24.659 25.3477 23.6174 24.418 23.0133 23.6514C23.6174 22.8871 24.659 21.9563 25.4075 21.3762C25.8872 21.7279 26.4491 22.2441 26.9699 22.7404C27.4896 22.2441 28.0726 21.7279 28.5312 21.3762C29.3008 21.9552 30.2802 22.886 30.9254 23.6514Z" fill="#D5CC65"/>
<path d="M38.7562 0.0742188C38.9228 0.611334 39.0061 1.14955 39.0472 1.68777L32.8852 2.7631C32.7175 2.22488 32.6342 1.68777 32.5931 1.14955L38.7562 0.0742188Z" fill="#D5CC65"/>
<path d="M46.2309 13.1038C46.2309 14.1372 45.9821 15.6273 45.6079 16.8261C44.4619 18.2312 43.4203 19.1014 40.6097 20.1348C39.0895 19.9087 37.3616 19.3705 35.8414 18.5224C34.3844 19.3903 32.6754 19.9286 31.0297 19.9286H30.51L29.4684 18.8941V15.7927H32.7376C32.1957 14.9434 31.8637 13.9928 31.8637 12.9372C31.8637 10.9112 33.2173 9.38037 35.6526 9.38037C38.2966 9.38037 39.879 10.8285 39.879 12.8953C39.879 13.9916 39.4204 15.0879 38.6509 16.1015C39.879 16.1632 41.4204 16.2052 43.3159 16.2052C43.4403 15.7078 43.5236 15.1916 43.5236 14.6953C43.5236 11.0358 40.5675 8.34586 33.6327 8.34586C33.8003 6.9187 34.1957 4.83089 34.5699 4.20996C41.3582 4.20996 46.2298 7.66424 46.2298 13.1027M34.3611 14.4262C34.3611 14.9842 34.7353 15.3978 35.6526 15.667C36.8386 15.4398 37.1728 14.9633 37.1728 14.4262C37.1728 13.7854 36.6098 13.5163 35.757 13.5163C34.7775 13.5163 34.3611 13.7854 34.3611 14.4262Z" fill="#D5CC65"/>
<path d="M57.6365 3.48145H61.17V9.80663H67.4297V3.48145H70.9632V18.9706H67.4297V12.5804H61.17V18.9706H57.6365V3.48145Z" fill="white"/>
<path d="M73.1897 15.8293C73.1897 13.1867 75.6316 12.1897 79.1218 12.1897H80.4088V11.7341C80.4088 10.3908 79.9935 9.6552 78.5555 9.6552C77.3117 9.6552 76.7454 10.2828 76.6144 11.2577H73.6262C73.8227 8.57211 75.9603 7.37988 78.752 7.37988C81.5437 7.37988 83.5293 8.50704 83.5293 11.582V18.9692H80.4533V17.6049C79.7992 18.5138 78.7954 19.2074 77.0075 19.2074C74.9343 19.2074 73.1908 18.2104 73.1908 15.8282M80.41 15.0054V14.0525H79.1885C77.3562 14.0525 76.2868 14.4429 76.2868 15.6561C76.2868 16.4789 76.7888 17.0204 77.9447 17.0204C79.3417 17.0204 80.41 16.2627 80.41 15.0054Z" fill="white"/>
<path d="M89.3093 17.8226L84.772 7.64062H88.1744L90.945 14.4433L93.4969 7.64062H96.5284L90.3554 22.8265H87.3027L89.3093 17.8226Z" fill="white"/>
<path d="M101.83 17.8226L97.2925 7.64062H100.695L103.466 14.4433L106.017 7.64062H109.049L102.876 22.8265H99.8233L101.83 17.8226Z" fill="white"/>
<path d="M109.661 15.8293C109.661 13.1867 112.103 12.1897 115.593 12.1897H116.88V11.7341C116.88 10.3908 116.465 9.6552 115.027 9.6552C113.783 9.6552 113.216 10.2828 113.085 11.2577H110.097C110.294 8.57211 112.431 7.37988 115.223 7.37988C118.015 7.37988 120 8.50704 120 11.582V18.9692H116.924V17.6049C116.27 18.5138 115.266 19.2074 113.479 19.2074C111.405 19.2074 109.662 18.2104 109.662 15.8282M116.881 15.0054V14.0525H115.659C113.827 14.0525 112.758 14.4429 112.758 15.6561C112.758 16.4789 113.26 17.0204 114.416 17.0204C115.813 17.0204 116.881 16.2627 116.881 15.0054Z" fill="white"/>
<path d="M96.7712 5.5329C96.6013 6.40091 96.1949 6.80461 95.5342 6.80461C94.7024 6.80461 94.2327 6.12742 94.2327 4.91974C94.2327 4.58 94.276 4.1565 94.3826 3.79694L95.5986 3.69107C95.5131 3.98777 95.4708 4.2833 95.4708 4.51605C95.4708 4.83368 95.5552 5.06747 95.8539 5.06747C96.196 5.06747 96.3448 4.62304 96.3448 3.56205L97.5386 3.43628C97.5386 4.34622 97.6884 4.72781 97.986 4.72781C98.2837 4.72781 98.4125 4.47302 98.4125 4.05062C98.4125 3.81794 98.3903 3.56316 98.327 3.26645L99.564 3.13965C99.6284 3.45728 99.6484 3.85979 99.6484 4.1565C99.6484 5.66088 99.0943 6.46487 98.0915 6.46487C97.4097 6.46487 96.9833 6.14724 96.769 5.5329" fill="white"/>
</svg>
