<svg width="16" height="16" viewBox="0 0 16 16" fill="none" xmlns="http://www.w3.org/2000/svg">
<path fill-rule="evenodd" clip-rule="evenodd" d="M4.15639e-10 1C5.19167e-08 0.447715 0.447715 -5.15009e-08 1 0L15 1.30551e-06C15.5523 1.35702e-06 16 0.447717 16 1C16 1.55229 15.5523 2 15 2L1 2C0.447715 2 -5.10855e-08 1.55228 4.15639e-10 1Z" fill="#FAF3DD"/>
<path fill-rule="evenodd" clip-rule="evenodd" d="M0 8C5.1731e-08 7.44772 0.447715 7 1 7L15 7C15.5523 7 16 7.44772 16 8C16 8.55229 15.5523 9 15 9L1 9C0.447715 9 -5.1731e-08 8.55229 0 8Z" fill="#FAF3DD"/>
<path fill-rule="evenodd" clip-rule="evenodd" d="M4.15639e-10 15C5.19167e-08 14.4477 0.447715 14 1 14L15 14C15.5523 14 16 14.4477 16 15C16 15.5523 15.5523 16 15 16L1 16C0.447715 16 -5.10855e-08 15.5523 4.15639e-10 15Z" fill="#FAF3DD"/>
</svg>
