<svg width="25" height="25" viewBox="0 0 25 25" fill="none" xmlns="http://www.w3.org/2000/svg">
<path d="M8.27469 11.6395C8.27469 11.0946 8.71642 10.6529 9.26133 10.6529H15.1812C15.7261 10.6529 16.1678 11.0946 16.1678 11.6395C16.1678 12.1844 15.7261 12.6262 15.1812 12.6262L9.26133 12.6262C8.71642 12.6262 8.27469 12.1844 8.27469 11.6395Z" fill="#222222"/>
<path d="M9.26133 14.5995C8.71642 14.5995 8.27469 15.0412 8.27469 15.5861C8.27469 16.131 8.71642 16.5727 9.26133 16.5727H12.2213C12.7662 16.5727 13.2079 16.131 13.2079 15.5861C13.2079 15.0412 12.7662 14.5995 12.2213 14.5995L9.26133 14.5995Z" fill="#222222"/>
<path fill-rule="evenodd" clip-rule="evenodd" d="M15.6291 4.75311C18.1438 4.97946 20.1144 7.09272 20.1144 9.66625V17.5594C20.1144 20.2839 17.9057 22.4926 15.1812 22.4926H9.26133C6.5368 22.4926 4.32813 20.2839 4.32813 17.5594L4.32813 9.66625C4.32813 7.09272 6.29876 4.97946 8.81337 4.75311C9.03409 3.61726 10.0342 2.75977 11.2346 2.75977H13.2079C14.4083 2.75977 15.4084 3.61726 15.6291 4.75311ZM13.7012 5.22637C13.7012 5.49882 13.4803 5.71969 13.2079 5.71969L11.2346 5.71969C10.9622 5.71969 10.7413 5.49882 10.7413 5.22637C10.7413 4.95392 10.9622 4.73305 11.2346 4.73305L13.2079 4.73305C13.4803 4.73305 13.7012 4.95392 13.7012 5.22637ZM13.2079 7.69297C14.0149 7.69297 14.7313 7.30544 15.1814 6.70633C16.816 6.70643 18.1411 8.03159 18.1411 9.66625V17.5594C18.1411 19.1941 16.8159 20.5193 15.1812 20.5193H9.26133C7.62661 20.5193 6.30141 19.1941 6.30141 17.5594L6.30141 9.66625C6.30141 8.03159 7.62651 6.70643 9.26115 6.70633C9.71116 7.30544 10.4276 7.69297 11.2346 7.69297L13.2079 7.69297Z" fill="#222222"/>
</svg>
