<svg width="12" height="13" viewBox="0 0 12 13" fill="none" xmlns="http://www.w3.org/2000/svg">
<path d="M6.6 4.10908C6.6 3.77771 6.33137 3.50908 6 3.50908C5.66863 3.50908 5.4 3.77771 5.4 4.10908V6.80908C5.4 6.96821 5.46321 7.12082 5.57574 7.23335L6.47574 8.13335C6.71005 8.36766 7.08995 8.36766 7.32426 8.13335C7.55858 7.89903 7.55858 7.51913 7.32426 7.28482L6.6 6.56055V4.10908Z" fill="white"/>
<path fill-rule="evenodd" clip-rule="evenodd" d="M6 0.809082C2.68629 0.809082 0 3.49537 0 6.80908C0 10.1228 2.68629 12.8091 6 12.8091C9.31371 12.8091 12 10.1228 12 6.80908C12 3.49537 9.31371 0.809082 6 0.809082ZM1.2 6.80908C1.2 4.15812 3.34903 2.00908 6 2.00908C8.65097 2.00908 10.8 4.15812 10.8 6.80908C10.8 9.46005 8.65097 11.6091 6 11.6091C3.34903 11.6091 1.2 9.46005 1.2 6.80908Z" fill="white"/>
</svg>
