<svg width="24" height="24" viewBox="0 0 24 24" fill="none" xmlns="http://www.w3.org/2000/svg">
<path d="M8.2918 20.2506C15.8371 20.2506 19.9652 13.9979 19.9652 8.57716C19.9652 8.40138 19.9613 8.22169 19.9535 8.04591C20.7566 7.46516 21.4496 6.74582 22 5.92169C21.2521 6.25444 20.458 6.47176 19.6449 6.56622C20.5011 6.05303 21.1421 5.24684 21.4492 4.29708C20.6438 4.77441 19.763 5.11112 18.8445 5.29279C18.2257 4.63524 17.4075 4.19987 16.5164 4.05399C15.6253 3.9081 14.711 4.05982 13.9148 4.48569C13.1186 4.91156 12.4848 5.58786 12.1115 6.41004C11.7382 7.23221 11.6462 8.15446 11.8496 9.03419C10.2187 8.95235 8.62328 8.5287 7.16665 7.79069C5.71002 7.05269 4.42474 6.01681 3.39414 4.75021C2.87033 5.65331 2.71005 6.72198 2.94586 7.73902C3.18167 8.75606 3.79589 9.64515 4.66367 10.2256C4.01219 10.2049 3.37498 10.0295 2.80469 9.71388V9.76466C2.8041 10.7124 3.13175 11.6311 3.73192 12.3646C4.3321 13.0981 5.16777 13.6011 6.09687 13.7881C5.49338 13.9532 4.85999 13.9773 4.2457 13.8584C4.50788 14.6735 5.01798 15.3864 5.70481 15.8976C6.39164 16.4088 7.22093 16.6928 8.07695 16.71C6.62369 17.8515 4.82848 18.4707 2.98047 18.4678C2.65274 18.4673 2.32533 18.4472 2 18.4076C3.87738 19.6121 6.06128 20.2518 8.2918 20.2506Z" fill="white"/>
</svg>
