<svg width="19" height="19" viewBox="0 0 19 19" fill="none" xmlns="http://www.w3.org/2000/svg">
<path fill-rule="evenodd" clip-rule="evenodd" d="M9.5 16.5C13.366 16.5 16.5 13.366 16.5 9.5C16.5 5.63401 13.366 2.5 9.5 2.5C5.63401 2.5 2.5 5.63401 2.5 9.5C2.5 13.366 5.63401 16.5 9.5 16.5ZM9.5 18.25C14.3325 18.25 18.25 14.3325 18.25 9.5C18.25 4.66751 14.3325 0.75 9.5 0.75C4.66751 0.75 0.75 4.66751 0.75 9.5C0.75 14.3325 4.66751 18.25 9.5 18.25Z" fill="#222222"/>
<path d="M8.625 6C8.625 5.51675 9.01675 5.125 9.5 5.125C9.98325 5.125 10.375 5.51675 10.375 6C10.375 6.48325 9.98325 6.875 9.5 6.875C9.01675 6.875 8.625 6.48325 8.625 6Z" fill="#222222"/>
<path d="M10.518 12.7839C10.5589 13.3739 10.0914 13.875 9.5 13.875C8.9086 13.875 8.44105 13.3739 8.48202 12.7839L8.72032 9.35242C8.74877 8.94277 9.08937 8.625 9.5 8.625C9.91063 8.625 10.2512 8.94277 10.2797 9.35242L10.518 12.7839Z" fill="#222222"/>
</svg>
